<svg xmlns="http://www.w3.org/2000/svg" version="1.1" xmlns:xlink="http://www.w3.org/1999/xlink" xmlns:svgjs="http://svgjs.dev/svgjs" width="1600" height="6620" preserveAspectRatio="none" viewBox="0 0 1600 6620"><g mask="url(&quot;#SvgjsMask1784&quot;)" fill="none"><rect width="1600" height="6620" x="0" y="0" fill="url(&quot;#SvgjsLinearGradient1785&quot;)"></rect><path d="M1600 0L1317.77 0L1600 2078.86z" fill="rgba(255, 255, 255, .1)"></path><path d="M1317.77 0L1600 2078.86L1600 3994.6400000000003L640.71 0z" fill="rgba(255, 255, 255, .075)"></path><path d="M640.71 0L1600 3994.6400000000003L1600 4162.1L530.19 0z" fill="rgba(255, 255, 255, .05)"></path><path d="M530.19 0L1600 4162.1L1600 4513.84L412.65000000000003 0z" fill="rgba(255, 255, 255, .025)"></path><path d="M0 6620L524.24 6620L0 4726.09z" fill="rgba(0, 0, 0, .1)"></path><path d="M0 4726.09L524.24 6620L564.7 6620L0 2389.83z" fill="rgba(0, 0, 0, .075)"></path><path d="M0 2389.83L564.7 6620L1138.48 6620L0 1329.46z" fill="rgba(0, 0, 0, .05)"></path><path d="M0 1329.46L1138.48 6620L1237.06 6620L0 919.8700000000001z" fill="rgba(0, 0, 0, .025)"></path></g><defs><mask id="SvgjsMask1784"><rect width="1600" height="6620" fill="#ffffff"></rect></mask><linearGradient x1="-78.44%" y1="18.96%" x2="178.44%" y2="81.04%" gradientUnits="userSpaceOnUse" id="SvgjsLinearGradient1785"><stop stop-color="#0e2a47" offset="0"></stop><stop stop-color="rgba(15, 0, 89, 1)" offset="0.4"></stop><stop stop-color="rgba(93, 21, 126, 0.9)" offset="0.86"></stop></linearGradient></defs></svg>